# xmcd
#
# Track frame offsets:
#	150
#	10132
#	21110
#	29685
#	37855
#	48097
#	58775
#	70912
#	86850
#	98530
#	110100
#	119872
#	130460
#	140980
#	151115
#	161555
#	171365
#	186332
#	198377
#	209062
#	219970
#	231145
#	243302
#	255162
#	264642
#	275167
#	284347
#	293560
#	302875
#	314627
#	324717
#	334877
#	345475
#
# Disc length: 4727 seconds
# Revision: 1
# Processed by: cddbd v1.5.2PL0 Copyright (c) Steve Scherf et al.
# Submitted via: cdrLabel 7.1
#
DISCID=04127521
DTITLE=bob luman - Luman, 1968-1977 cd1
DYEAR=1900
DGENRE=
TTITLE0=Happiness Is My Belief 
TTITLE1=I Can't Remember To Forget 
TTITLE2=Ain't Got Time To Be Unhappy 
TTITLE3=Someday You'll Call My Name 
TTITLE4=Memphis 
TTITLE5=Release Me 
TTITLE6=Almost Persuaded 
TTITLE7=Ballad Of Two Brothers (& AUTRY INMAN) 
TTITLE8=Say It's Not You 
TTITLE9=Sally Was A Good Ole Girl 
TTITLE10=Have A Little Faith 
TTITLE11=Let's Think About Livin' 
TTITLE12=Come On Home (And Sing The Blues To Daddy) 
TTITLE13=Tomorrow's Gonna Be Better Than Today 
TTITLE14=World Of Unhappiness 
TTITLE15=I Like Trains 
TTITLE16=Woman Without Love 
TTITLE17=I'm In This Town For Good 
TTITLE18=I Ain't Built That Way 
TTITLE19=Big, Big World 
TTITLE20=Come On Home (And Sing The Blues To Daddy) 
TTITLE21=Ten Years Of Life 
TTITLE22=Guitar Man 
TTITLE23=Makin' A Mountain Out Of A Molehill 
TTITLE24=Freeborn Man 
TTITLE25=Every Day I Have To Cry Some 
TTITLE26=Sugar Man 
TTITLE27=Knee Deep In The Blues 
TTITLE28=There's A Big Wheel 
TTITLE29=Livin' In A House Full Of Love 
TTITLE30=Come On Home (And Sing The Blues To Daddy) 
TTITLE31=Come On Home (And Sing The Blues To Daddy) 
TTITLE32=I Like Trains 
EXTD=
EXTT0=
EXTT1=1
EXTT2=
EXTT3=
EXTT4=
EXTT5=
EXTT6=
EXTT7=
EXTT8=
EXTT9=
EXTT10=
EXTT11=
EXTT12=
EXTT13=
EXTT14=
EXTT15=
EXTT16=
EXTT17=
EXTT18=
EXTT19=
EXTT20=
EXTT21=
EXTT22=
EXTT23=
EXTT24=
EXTT25=
EXTT26=
EXTT27=
EXTT28=
EXTT29=
EXTT30=
EXTT31=
EXTT32=
PLAYORDER=
